<svg width="69" height="57" viewBox="0 0 69 57" fill="none" xmlns="http://www.w3.org/2000/svg">
<path d="M68.9819 28.4443C68.9819 30.4482 67.1849 32.018 65.1483 32.018H61.3146L61.3985 49.8527C61.3985 50.1533 61.3745 50.4539 61.3386 50.7545V52.5469C61.3386 55.0072 59.1941 57 56.5465 57H54.6296C54.4979 57 54.3661 57 54.2343 56.9889C54.0666 57 53.8989 57 53.7311 57H46.9623C44.3147 57 42.1703 55.0072 42.1703 52.5469V42.75C42.1703 40.7795 40.4571 39.1875 38.3366 39.1875H30.6693C28.5488 39.1875 26.8356 40.7795 26.8356 42.75V52.5469C26.8356 55.0072 24.6912 57 22.0435 57H15.3466C15.1669 57 14.9872 56.9889 14.8075 56.9777C14.6637 56.9889 14.52 57 14.3762 57H12.4594C9.81177 57 7.66732 55.0072 7.66732 52.5469V40.0781C7.66732 39.9779 7.66732 39.8666 7.6793 39.7664V32.018H3.83366C1.67723 32.018 0 30.4594 0 28.4443C0 27.4424 0.359406 26.5518 1.19802 25.7725L31.9152 0.890625C32.7538 0.111328 33.7122 0 34.5509 0C35.3895 0 36.3479 0.222656 37.0667 0.779297L67.6641 25.7725C68.6225 26.5518 69.1017 27.4424 68.9819 28.4443Z" fill="white"/>
</svg>
